# xmcd
#
# Track frame offsets: 
#        150
#        12527
#        35585
#        49372
#        68622
#        83552
#        102335
#        119552
#        143385
#        163910
#
# Disc length: 2682 seconds
#
# Revision: 4
# Processed by: cddbd v1.5.1PL0 Copyright (c) Steve Scherf et al.
# Submitted via: ExactAudioCopy v0.95a5
#
DISCID=840a780a
DTITLE=Roy Buchanan - Hot Wires
DYEAR=1987
DGENRE=Blues
TTITLE0=High Wire
TTITLE1=That Did It
TTITLE2=Goose Grease
TTITLE3=Sunset Over Broadway
TTITLE4=Ain't No Business
TTITLE5=Flash Chordin'
TTITLE6=25 Miles
TTITLE7=These Arms of Mine
TTITLE8=Country Boogie
TTITLE9=The Blues Lover
EXTD=YEAR: 1987
EXTT0=
EXTT1=
EXTT2=
EXTT3=
EXTT4=
EXTT5=
EXTT6=
EXTT7=
EXTT8=
EXTT9=
PLAYORDER=
